<svg xmlns="http://www.w3.org/2000/svg" width="21.324" height="22.352"><path d="M21.198 8.317a.433.433 0 0 0-.612 0L8.767 20.135a4.632 4.632 0 0 1-6.55-6.55L14.035 1.766a3.176 3.176 0 0 1 4.581.179 3.175 3.175 0 0 1 .179 4.581l-11.1 11.1a1.593 1.593 0 1 1-2.253-2.253l7.521-7.521a.433.433 0 0 0-.612-.612L4.83 14.76a2.459 2.459 0 0 0 3.475 3.48l11.1-11.1a4.021 4.021 0 0 0-.179-5.805 4.021 4.021 0 0 0-5.805-.179L1.604 12.973a5.5 5.5 0 0 0 7.775 7.775L21.198 8.929a.433.433 0 0 0 0-.612z" fill="#f7791c"/></svg>