<svg xmlns="http://www.w3.org/2000/svg" width="29.248" height="30.073"><g data-name="Group 360"><g data-name="Ellipse 61" transform="translate(15.248)" fill="none" stroke="#f7791c"><circle cx="7" cy="7" r="7" stroke="none"/><circle cx="7" cy="7" r="6.5"/></g><path data-name="Line 30" fill="none" stroke="#f7791c" d="M26.748 2.5l-9 9"/><g data-name="Group 359"><g data-name="Group 358" fill="none" stroke="#f7791c"><path data-name="Path 679" d="M12.848 12.47H4.655L.497 20.256v6.481h25.437V20.46l-2.283-3.465"/><path data-name="Path 680" d="M.5 20.7h25.437"/><path data-name="Path 681" d="M7.186 20.7v5.87"/><path data-name="Path 682" d="M18.232 20.7v5.707"/></g></g><path data-name="Path 683" d="M1.579 27.094s.126 1.944.847 2.414.878.564.878.564h2.132l.847-.564a4.234 4.234 0 0 0 .878-2.414" fill="#f7791c"/><path data-name="Path 684" d="M18.579 27.094s.126 1.944.847 2.414.878.564.878.564h2.132l.847-.564a4.234 4.234 0 0 0 .878-2.414" fill="#f7791c"/></g></svg>