<svg xmlns="http://www.w3.org/2000/svg" width="23.365" height="23.365"><g data-name="Group 347" fill="#707070"><path data-name="Path 549" d="M11.682 9.624a2.09 2.09 0 1 0 2.09 2.09 2.093 2.093 0 0 0-2.09-2.09z"/><g data-name="Group 346"><path data-name="Path 548" d="M15.165 6.216H8.201a2.018 2.018 0 0 0-2.016 2.02v6.96a2.018 2.018 0 0 0 2.016 2.016h6.964a2.018 2.018 0 0 0 2.016-2.016v-6.96a2.018 2.018 0 0 0-2.016-2.02zm-3.482 9.12a3.62 3.62 0 1 1 3.62-3.62 3.624 3.624 0 0 1-3.62 3.62zm3.736-6.491a.856.856 0 1 1 .856-.856.857.857 0 0 1-.856.854z"/><path data-name="Path 550" d="M11.683 0a11.683 11.683 0 1 0 11.682 11.683A11.683 11.683 0 0 0 11.683 0zm7.027 15.2a3.549 3.549 0 0 1-3.545 3.545H8.2A3.549 3.549 0 0 1 4.655 15.2V8.232A3.549 3.549 0 0 1 8.2 4.687h6.964a3.549 3.549 0 0 1 3.546 3.545z"/></g></g></svg>