<svg xmlns="http://www.w3.org/2000/svg" width="31.124" height="29.989"><g fill="#f7791c"><path data-name="Path 660" d="M29.241 12.452h-6.166a.566.566 0 0 0 0 1.131h5.149l1.64 15.274H1.283l1.925-15.274h5.158a.566.566 0 1 0 0-1.131H2.21L0 29.989h31.124z"/><path data-name="Path 661" d="M15.079 21.478c-.083.049-.172.093-.252.144-.124.08-.246.165-.365.252a.566.566 0 0 0 .67.912c.1-.074.2-.145.31-.214a6.219 6.219 0 0 1 .574-.329.562.562 0 0 0 .261-.718l.014-.012a25.344 25.344 0 0 0 5.9-11.913 11.626 11.626 0 0 0 .193-3.914c-.487-3.72-2.798-5.688-6.683-5.688s-6.2 1.966-6.683 5.686a11.64 11.64 0 0 0 .194 3.914 25.386 25.386 0 0 0 5.867 11.88zM10.143 5.834c.415-3.163 2.234-4.7 5.562-4.7s5.147 1.538 5.561 4.7a10.53 10.53 0 0 1-.179 3.534 24.89 24.89 0 0 1-5.382 11.114 24.9 24.9 0 0 1-5.386-11.114 10.53 10.53 0 0 1-.176-3.534z"/><path data-name="Path 662" d="M15.702 10.705a4.156 4.156 0 1 0-4.156-4.156 4.16 4.16 0 0 0 4.156 4.156zm0-7.179a3.024 3.024 0 1 1-3.025 3.024 3.028 3.028 0 0 1 3.025-3.024z"/><path data-name="Path 663" d="M17.779 20.461a.566.566 0 0 0 .236 1.107c.332-.07.691-.13 1.067-.177a.565.565 0 0 0-.139-1.122c-.408.049-.8.114-1.164.192z"/><path data-name="Path 664" d="M20.706 20.691a.565.565 0 0 0 .565.541h.025l1.132-.047a.565.565 0 0 0 .539-.591.58.58 0 0 0-.591-.54l-1.129.047a.565.565 0 0 0-.541.59z"/><path data-name="Path 665" d="M12.691 23.293c-.291.219-.591.431-.894.626a.566.566 0 0 0 .617.949c.324-.21.647-.437.959-.672a.566.566 0 0 0-.682-.9z"/><path data-name="Path 666" d="M25.299 19.563a2.016 2.016 0 0 1-.761.3.566.566 0 1 0 .229 1.108 3.111 3.111 0 0 0 1.186-.483l.076-.055a.566.566 0 1 0-.683-.9z"/><path data-name="Path 667" d="M5.013 23.987a.566.566 0 1 0-1.092-.3 3.783 3.783 0 0 0-.127.795v.2c0 .111.006.222.016.332a.566.566 0 0 0 .562.508h.058a.567.567 0 0 0 .506-.621 2.07 2.07 0 0 1-.011-.221v-.14a2.636 2.636 0 0 1 .088-.553z"/><path data-name="Path 668" d="M25.287 15.165a3.327 3.327 0 0 0-1.35.1.566.566 0 0 0 .153 1.112.552.552 0 0 0 .154-.021 2.208 2.208 0 0 1 .891-.069.566.566 0 0 0 .152-1.122z"/><path data-name="Path 669" d="M26.412 17.969a.565.565 0 0 0 .373.707.554.554 0 0 0 .167.025.565.565 0 0 0 .54-.4 2.411 2.411 0 0 0 .1-.545v-.141a2.258 2.258 0 0 0-.144-.787.566.566 0 0 0-1.061.393 1.134 1.134 0 0 1 .074.394v.066a1.275 1.275 0 0 1-.049.288z"/><path data-name="Path 670" d="M9.889 24.983c-.332.156-.669.3-1 .429a.566.566 0 0 0 .2 1.094.559.559 0 0 0 .2-.038c.359-.139.721-.294 1.077-.46a.566.566 0 0 0-.481-1.025z"/><path data-name="Path 671" d="M5.771 22.628a.565.565 0 0 0 .27-.069 1.384 1.384 0 0 1 .515-.163.918.918 0 0 1 .23 0 .565.565 0 1 0 .149-1.117 2.089 2.089 0 0 0-.5 0 2.514 2.514 0 0 0-.931.295.566.566 0 0 0 .272 1.062z"/><path data-name="Path 672" d="M5.653 27.064a2.8 2.8 0 0 0 .37.07 3.614 3.614 0 0 0 .435.027 4.2 4.2 0 0 0 .527-.035.566.566 0 1 0-.141-1.122 2.772 2.772 0 0 1-.688.008 1.887 1.887 0 0 1-.223-.042.566.566 0 1 0-.285 1.095z"/></g></svg>