<svg xmlns="http://www.w3.org/2000/svg" width="21.621" height="25.159"><g fill="#f7791c"><path data-name="Path 691" d="M14.545 13.759a.393.393 0 0 0-.393.393v7.076H.786V3.931H5.11a.393.393 0 1 0 0-.786H.786v-.393A1.968 1.968 0 0 1 2.752.786h9.435a.393.393 0 1 0 0-.786H2.752A2.755 2.755 0 0 0 0 2.752v19.655a2.755 2.755 0 0 0 2.752 2.752h9.435a2.755 2.755 0 0 0 2.752-2.752v-8.255a.393.393 0 0 0-.394-.393zm-2.359 10.614H2.752a1.968 1.968 0 0 1-1.966-1.966v-.393h13.366v.393a1.968 1.968 0 0 1-1.966 1.966z"/><path data-name="Path 692" d="M8.256 22.8H6.684a.393.393 0 1 0 0 .786h1.572a.393.393 0 1 0 0-.786z"/><path data-name="Path 693" d="M4.832 1.687a.394.394 0 1 0 .278-.115.4.4 0 0 0-.278.115z"/><path data-name="Path 694" d="M8.648 6.683h2.359a.393.393 0 0 0 0-.786H8.648a.393.393 0 0 0 0 .786z"/><path data-name="Path 695" d="M18.869 5.897h-6.29a.393.393 0 0 0 0 .786h6.29a.393.393 0 0 0 0-.786z"/><path data-name="Path 696" d="M18.869 7.862H16.51a.393.393 0 0 0 0 .786h2.359a.393.393 0 0 0 0-.786z"/><path data-name="Path 697" d="M8.648 8.648h6.29a.393.393 0 0 0 0-.786h-6.29a.393.393 0 0 0 0 .786z"/><path data-name="Path 698" d="M18.869 3.931H8.648a.393.393 0 0 0 0 .786h10.221a.393.393 0 1 0 0-.786z"/><path data-name="Path 699" d="M18.869 9.828H8.648a.393.393 0 0 0 0 .786h10.221a.393.393 0 1 0 0-.786z"/><path data-name="Path 700" d="M18.87 1.572H8.649a2.755 2.755 0 0 0-2.752 2.752v5.9a2.756 2.756 0 0 0 2.359 2.724v1.434a.786.786 0 0 0 1.342.556l1.966-1.966h7.306a2.755 2.755 0 0 0 2.752-2.752v-5.9a2.755 2.755 0 0 0-2.752-2.748zm1.966 8.648a1.968 1.968 0 0 1-1.966 1.966h-7.473a.393.393 0 0 0-.278.115l-2.081 2.08v-1.8a.393.393 0 0 0-.393-.393 1.968 1.968 0 0 1-1.966-1.966v-5.9a1.968 1.968 0 0 1 1.966-1.966h10.221a1.968 1.968 0 0 1 1.966 1.966z"/></g></svg>