<svg xmlns="http://www.w3.org/2000/svg" width="17.782" height="26"><g fill="#f7791c"><path data-name="Path 642" d="M10.033 14.778V8.072a.386.386 0 0 0-.772 0v6.9a.386.386 0 0 0 .162.314 5.477 5.477 0 1 1-6.348 0 .386.386 0 0 0 .162-.314V3.785a3.012 3.012 0 1 1 6.024 0v2.742a.386.386 0 1 0 .772 0V3.785a3.784 3.784 0 1 0-7.568 0v10.993a6.249 6.249 0 1 0 7.568 0zm0 0"/><path data-name="Path 643" d="M6.249 23.169a3.392 3.392 0 0 1-1.957-.617.386.386 0 1 0-.443.632 4.188 4.188 0 0 0 6.59-3.432 4.2 4.2 0 0 0-1.762-3.415l-.7-.5V3.785a1.725 1.725 0 1 0-3.45 0v12.051l-.7.5a4.188 4.188 0 0 0-1.046 5.757.386.386 0 0 0 .64-.433 3.415 3.415 0 0 1 .854-4.7l.864-.616a.386.386 0 0 0 .162-.314v-1.486h1.9v1.491a.386.386 0 0 0 .162.314l.864.616a3.418 3.418 0 0 1-1.979 6.2zm.953-15.3h-1.9V5.693h1.9zm-1.9.772h1.9v2.178h-1.9zm.952-5.811a.954.954 0 0 1 .953.953v1.136h-1.9V3.785a.954.954 0 0 1 .942-.953zm-.952 10.94v-2.176h1.9v2.178zm0 0"/><path data-name="Path 644" d="M17.345 8.636c-.269 0-.417.1-.437.306-.058.455-.146 1.143-1.218 1.143-.879 0-1.306-.446-1.306-1.365V5.772c0-.906.43-1.365 1.277-1.365a1.084 1.084 0 0 1 1.247 1.1c.011.2.166.308.437.308s.437-.078.437-.476c0-1.018-.88-1.73-2.141-1.73a1.953 1.953 0 0 0-2.131 2.16v2.947a2.13 2.13 0 0 0 .627 1.67 2.2 2.2 0 0 0 1.494.49c1.266 0 2.15-.723 2.15-1.759.001-.4-.166-.481-.436-.481zm0 0"/><path data-name="Path 645" d="M14.056 2.511a1.261 1.261 0 1 0-1.261 1.261 1.263 1.263 0 0 0 1.261-1.261zM12.795 3a.489.489 0 1 1 .489-.489.49.49 0 0 1-.489.489zm0 0"/></g></svg>