<svg xmlns="http://www.w3.org/2000/svg" width="25" height="25"><path data-name="Path 646" d="M22.984 5.645h-.4V0H2.419v5.645h-.4A2.019 2.019 0 0 0 0 7.661v12.9a2.019 2.019 0 0 0 2.016 2.016h5.242v1.613H5.645V25h13.71v-.806h-1.613v-1.613h5.242A2.019 2.019 0 0 0 25 20.565V7.661a2.018 2.018 0 0 0-2.016-2.016zM3.226 4.032h18.548v12.9H3.226zM21.774.806v2.42H3.226V.806zM2.016 6.452h.4v11.29h20.165V6.452h.4a1.211 1.211 0 0 1 1.21 1.21v10.886H.806V7.661a1.211 1.211 0 0 1 1.21-1.209zm14.919 17.742h-8.87v-1.613h8.871zm6.048-2.419H2.016a1.211 1.211 0 0 1-1.21-1.21v-1.21h23.388v1.21a1.211 1.211 0 0 1-1.21 1.209zm0 0" fill="#f7791c"/><path data-name="Path 647" d="M2.419 20.161h.806v.806h-.806zm0 0" fill="#f7791c"/><path data-name="Path 648" d="M4.032 20.161h.806v.806h-.806zm0 0" fill="#f7791c"/><path data-name="Path 649" d="M5.645 20.161h.806v.806h-.806zm0 0" fill="#f7791c"/><path data-name="Path 650" d="M4.032 1.613h.806v.806h-.806zm0 0" fill="#f7791c"/><path data-name="Path 651" d="M5.645 1.613h.806v.806h-.806zm0 0" fill="#f7791c"/><path data-name="Path 652" d="M7.258 1.613h.806v.806h-.806zm0 0" fill="#f7791c"/><path data-name="Path 653" d="M10.632 9.762l-1.36-.388v-.107a2.018 2.018 0 0 0 .806-1.6v-.723a2.074 2.074 0 0 0-1.837-2.092 2.016 2.016 0 0 0-2.2 2.008v.806a2.018 2.018 0 0 0 .806 1.6v.107l-1.36.389A2.025 2.025 0 0 0 4.032 11.7v1.2h8.065v-1.2a2.025 2.025 0 0 0-1.465-1.938zm.656 2.335h-6.45v-.4a1.215 1.215 0 0 1 .877-1.163l1.945-.556V8.821l-.2-.117a1.2 1.2 0 0 1-.606-1.041v-.806a1.213 1.213 0 0 1 .393-.892 1.194 1.194 0 0 1 .927-.313 1.264 1.264 0 0 1 1.1 1.289v.723a1.2 1.2 0 0 1-.606 1.041l-.2.117v1.163l1.945.556a1.216 1.216 0 0 1 .877 1.163zm0 0" fill="#f7791c"/><path data-name="Path 654" d="M4.032 13.71h8.065v.806H4.032zm0 0" fill="#f7791c"/><path data-name="Path 655" d="M4.032 15.323h8.065v.806H4.032zm0 0" fill="#f7791c"/><path data-name="Path 656" d="M12.903 16.129h8.065V9.677h-8.065zm.806-5.645h6.452v4.839h-6.452zm0 0" fill="#f7791c"/><path data-name="Path 657" d="M12.903 4.839h8.065v.806h-8.065zm0 0" fill="#f7791c"/><path data-name="Path 658" d="M12.903 6.452h8.065v.806h-8.065zm0 0" fill="#f7791c"/><path data-name="Path 659" d="M12.903 8.065h5.645v.806h-5.645zm0 0" fill="#f7791c"/></svg>