<svg xmlns="http://www.w3.org/2000/svg" width="26.01" height="25.999"><g fill="#f7791c"><path d="M16.703 14.515a.509.509 0 1 0 .359-.148.511.511 0 0 0-.359.148z"/><path d="M25.688 24.129l-.032-.032-1.341-5.636a5.31 5.31 0 0 0-5.183-4.094h-.038a.508.508 0 1 0 0 1.016h.038a4.3 4.3 0 0 1 4.195 3.315l.959 4.031-4.325-4.331a.508.508 0 0 0-.359-.149h-2.26a.507.507 0 0 0-.185.035 8.318 8.318 0 0 0-8.3 0 .507.507 0 0 0-.184-.035H6.407a.508.508 0 0 0-.359.149L1.72 22.73l.954-4.032a4.3 4.3 0 0 1 4.2-3.319h3.9a3.382 3.382 0 0 0 4.625-.149.508.508 0 0 0 .149-.359v-2.602a4.813 4.813 0 0 0 2.171-3.156h.395a1.728 1.728 0 0 0 1.726-1.726v-.274a1.728 1.728 0 0 0-1.726-1.726H17.8v-.589a4.8 4.8 0 0 0-9.6 0v.586h-.309a1.728 1.728 0 0 0-1.726 1.729v.274a1.728 1.728 0 0 0 1.726 1.727h.395a4.813 4.813 0 0 0 2.171 3.156v2.1H6.87a5.328 5.328 0 0 0-5.185 4.1L.353 24.098l-.032.032a1.1 1.1 0 0 0 .779 1.868h3.434a.508.508 0 0 0 .437-.249l1.7-2.88.156.1a1.378 1.378 0 0 0 .486.194 6.111 6.111 0 0 0-.458 2.327.508.508 0 1 0 1.016 0 5.106 5.106 0 0 1 1.163-3.249l2.16 2.157a2.1 2.1 0 0 0-.3 1.093.508.508 0 1 0 1.016 0 1.1 1.1 0 0 1 2.2 0 .508.508 0 1 0 1.016 0 2.1 2.1 0 0 0-.3-1.093l2.156-2.156a5.106 5.106 0 0 1 1.163 3.249.508.508 0 1 0 1.016 0 6.111 6.111 0 0 0-.458-2.327 1.378 1.378 0 0 0 .486-.194l.156-.1 1.7 2.88a.508.508 0 0 0 .437.249h3.438a1.1 1.1 0 0 0 .775-1.87zM18.817 7.113v.274a.712.712 0 0 1-.711.711H17.8v-1.7h.307a.712.712 0 0 1 .71.715zM9.213 4.798a3.785 3.785 0 0 1 7.57 0v.586H15.45a1.447 1.447 0 0 1-.744-.2 6.573 6.573 0 0 0 .8-.68.508.508 0 0 0-.718-.718 5.433 5.433 0 0 1-3.867 1.6h-1.7v-.588zM7.18 7.387v-.274a.712.712 0 0 1 .711-.715H8.2v1.7h-.309a.712.712 0 0 1-.711-.711zm2.033.811v-1.8h1.7a6.459 6.459 0 0 0 2.853-.658 2.454 2.454 0 0 0 1.684.658h1.334v1.8a3.785 3.785 0 0 1-7.57 0zm3.787 4.8a4.781 4.781 0 0 0 1.526-.249v1.9a2.372 2.372 0 0 1-3.051 0v-1.9a4.782 4.782 0 0 0 1.525.249zm3.55 6.112l-.412.7a1.386 1.386 0 0 0-.134.313 6.133 6.133 0 0 0-6 0 1.385 1.385 0 0 0-.134-.313l-.412-.7a7.3 7.3 0 0 1 7.088 0zm-12.3 5.872H1.1a.08.08 0 0 1-.057-.137l2.886-2.886 1.321 1.326zm2.537-3.253a.508.508 0 0 0-.717.169l-.286.483-1.14-1.14 1.974-1.974h1.759L9 20.328a.376.376 0 0 1-.038.432L7.87 22.043a.377.377 0 0 1-.489.073zm5.13 1.949l-2.161-2.153a5.119 5.119 0 0 1 6.5 0L14.1 23.68a2.112 2.112 0 0 0-2.186 0zm7.316-1.949l-.6.385a.376.376 0 0 1-.489-.073l-1.088-1.283a.376.376 0 0 1-.038-.432l.619-1.059h1.759l1.974 1.974-1.14 1.14-.29-.483a.508.508 0 0 0-.712-.169zm5.759 3.2a.073.073 0 0 1-.074.049h-3.153l-1.005-1.7 1.324-1.324 2.886 2.886a.072.072 0 0 1 .017.094z"/></g></svg>