<svg xmlns="http://www.w3.org/2000/svg" width="21.324" height="22.352" viewBox="0 0 21.324 22.352">
  <path id="attachment" d="M22.383,8.316a.433.433,0,0,0-.612,0L9.952,20.134a4.632,4.632,0,0,1-6.55-6.55L15.22,1.765a3.176,3.176,0,0,1,4.581.179,3.175,3.175,0,0,1,.179,4.581l-11.1,11.1a1.593,1.593,0,1,1-2.253-2.253l7.521-7.521a.433.433,0,0,0-.612-.612l-7.521,7.52A2.459,2.459,0,0,0,9.49,18.239l11.1-11.1a4.021,4.021,0,0,0-.179-5.805,4.021,4.021,0,0,0-5.805-.179L2.789,12.972a5.5,5.5,0,0,0,7.775,7.775L22.383,8.928A.433.433,0,0,0,22.383,8.316Z" transform="translate(-1.185 0.001)" fill="#f7791c"/>
</svg>
