<svg xmlns="http://www.w3.org/2000/svg" width="29.248" height="30.073" viewBox="0 0 29.248 30.073">
  <g id="Group_360" data-name="Group 360" transform="translate(-696.752 -500)">
    <g id="Ellipse_61" data-name="Ellipse 61" transform="translate(712 500)" fill="none" stroke="#f7791c" stroke-width="1">
      <circle cx="7" cy="7" r="7" stroke="none"/>
      <circle cx="7" cy="7" r="6.5" fill="none"/>
    </g>
    <line id="Line_30" data-name="Line 30" x1="9" y2="9" transform="translate(714.5 502.5)" fill="none" stroke="#f7791c" stroke-width="1"/>
    <g id="Group_359" data-name="Group 359">
      <g id="Group_358" data-name="Group 358">
        <path id="Path_679" data-name="Path 679" d="M10952.6,512.47h-8.193l-4.158,7.786v6.481h25.437V520.46l-2.283-3.465" transform="translate(-10243)" fill="none" stroke="#f7791c" stroke-width="1"/>
        <path id="Path_680" data-name="Path 680" d="M10940.252,520.7h25.437" transform="translate(-10243)" fill="none" stroke="#f7791c" stroke-width="1"/>
        <path id="Path_681" data-name="Path 681" d="M10946.938,520.7v5.87" transform="translate(-10243)" fill="none" stroke="#f7791c" stroke-width="1"/>
        <path id="Path_682" data-name="Path 682" d="M10957.984,520.7v5.707" transform="translate(-10243)" fill="none" stroke="#f7791c" stroke-width="1"/>
      </g>
    </g>
    <path id="Path_683" data-name="Path 683" d="M10941.331,527.094s.126,1.944.847,2.414.878.564.878.564h2.132l.847-.564a4.234,4.234,0,0,0,.878-2.414" transform="translate(-10243)" fill="#f7791c"/>
    <path id="Path_684" data-name="Path 684" d="M10941.331,527.094s.126,1.944.847,2.414.878.564.878.564h2.132l.847-.564a4.234,4.234,0,0,0,.878-2.414" transform="translate(-10226)" fill="#f7791c"/>
  </g>
</svg>
