<svg xmlns="http://www.w3.org/2000/svg" width="23.365" height="23.365" viewBox="0 0 23.365 23.365">
  <g id="Group_347" data-name="Group 347" transform="translate(-13488.5 -1601)">
    <path id="Path_549" data-name="Path 549" d="M38.939,36.971a2.09,2.09,0,1,0,2.09,2.09A2.093,2.093,0,0,0,38.939,36.971Z" transform="translate(13461.243 1573.653)" fill="#707070"/>
    <g id="Group_346" data-name="Group 346">
      <path id="Path_548" data-name="Path 548" d="M32.739,23.88H25.775A2.018,2.018,0,0,0,23.759,25.9V32.86a2.018,2.018,0,0,0,2.016,2.016h6.964a2.018,2.018,0,0,0,2.016-2.016V25.9A2.018,2.018,0,0,0,32.739,23.88ZM29.257,33a3.62,3.62,0,1,1,3.62-3.62A3.624,3.624,0,0,1,29.257,33Zm3.736-6.491a.856.856,0,1,1,.856-.856A.857.857,0,0,1,32.993,26.507Z" transform="translate(13470.926 1583.336)" fill="#707070"/>
      <path id="Path_550" data-name="Path 550" d="M11.683,0A11.683,11.683,0,1,0,23.365,11.683,11.683,11.683,0,0,0,11.683,0ZM18.71,15.2a3.549,3.549,0,0,1-3.545,3.545H8.2A3.549,3.549,0,0,1,4.655,15.2V8.232A3.549,3.549,0,0,1,8.2,4.687h6.964A3.549,3.549,0,0,1,18.71,8.232Z" transform="translate(13488.5 1601)" fill="#707070"/>
    </g>
  </g>
</svg>
