<svg xmlns="http://www.w3.org/2000/svg" width="31.124" height="29.989" viewBox="0 0 31.124 29.989">
  <g id="map-location" transform="translate(0 -1.002)">
    <path id="Path_660" data-name="Path 660" d="M29.241,23.013H23.075a.566.566,0,0,0,0,1.131h5.149l1.64,15.274H1.283L3.208,24.144H8.366a.566.566,0,1,0,0-1.131H2.21L0,40.55H31.124Z" transform="translate(0 -9.559)" fill="#f7791c"/>
    <path id="Path_661" data-name="Path 661" d="M21.936,22.48c-.083.049-.172.093-.252.144-.124.08-.246.165-.365.252a.566.566,0,0,0,.67.912c.1-.074.2-.145.31-.214a6.219,6.219,0,0,1,.574-.329.562.562,0,0,0,.261-.718s.01-.008.014-.012a25.344,25.344,0,0,0,5.9-11.913,11.626,11.626,0,0,0,.193-3.914C28.754,2.968,26.443,1,22.558,1s-6.2,1.966-6.683,5.686a11.64,11.64,0,0,0,.194,3.914A25.386,25.386,0,0,0,21.936,22.48ZM17,6.836c.415-3.163,2.234-4.7,5.562-4.7s5.147,1.538,5.561,4.7a10.53,10.53,0,0,1-.179,3.534,24.89,24.89,0,0,1-5.382,11.114A24.9,24.9,0,0,1,17.176,10.37,10.53,10.53,0,0,1,17,6.836Z" transform="translate(-6.857)" fill="#f7791c"/>
    <path id="Path_662" data-name="Path 662" d="M24.565,13.544a4.156,4.156,0,1,0-4.156-4.156A4.16,4.16,0,0,0,24.565,13.544Zm0-7.179A3.024,3.024,0,1,1,21.54,9.389,3.028,3.028,0,0,1,24.565,6.365Z" transform="translate(-8.863 -1.837)" fill="#f7791c"/>
    <path id="Path_663" data-name="Path 663" d="M31.084,37.018a.566.566,0,0,0,.236,1.107c.332-.07.691-.13,1.067-.177a.565.565,0,0,0-.139-1.122C31.84,36.875,31.448,36.94,31.084,37.018Z" transform="translate(-13.305 -15.555)" fill="#f7791c"/>
    <path id="Path_664" data-name="Path 664" d="M36.6,37.087a.565.565,0,0,0,.565.541h.025l1.132-.047a.565.565,0,0,0,.539-.591.58.58,0,0,0-.591-.54l-1.129.047A.565.565,0,0,0,36.6,37.087Z" transform="translate(-15.894 -15.394)" fill="#f7791c"/>
    <path id="Path_665" data-name="Path 665" d="M21.549,42.09c-.291.219-.591.431-.894.626a.566.566,0,0,0,.617.949c.324-.21.647-.437.959-.672a.566.566,0,0,0-.682-.9Z" transform="translate(-8.858 -17.795)" fill="#f7791c"/>
    <path id="Path_666" data-name="Path 666" d="M43.789,35.469a2.016,2.016,0,0,1-.761.3.566.566,0,1,0,.229,1.108,3.111,3.111,0,0,0,1.186-.483l.076-.055a.566.566,0,1,0-.683-.9Z" transform="translate(-18.49 -14.904)" fill="#f7791c"/>
    <path id="Path_667" data-name="Path 667" d="M7.921,42.854a.566.566,0,1,0-1.092-.3,3.783,3.783,0,0,0-.127.795c0,.065,0,.131,0,.2,0,.111.006.222.016.332a.566.566,0,0,0,.562.508l.058,0a.567.567,0,0,0,.506-.621c-.008-.074-.011-.149-.011-.221,0-.047,0-.094,0-.14A2.636,2.636,0,0,1,7.921,42.854Z" transform="translate(-2.908 -17.865)" fill="#f7791c"/>
    <path id="Path_668" data-name="Path 668" d="M43.346,27.788a3.327,3.327,0,0,0-1.35.1A.566.566,0,0,0,42.149,29a.552.552,0,0,0,.154-.021,2.208,2.208,0,0,1,.891-.069.566.566,0,0,0,.152-1.122Z" transform="translate(-18.059 -11.621)" fill="#f7791c"/>
    <path id="Path_669" data-name="Path 669" d="M46.648,31.606a.565.565,0,0,0,.373.707.554.554,0,0,0,.167.025.565.565,0,0,0,.54-.4,2.411,2.411,0,0,0,.1-.545c0-.047,0-.094,0-.141a2.258,2.258,0,0,0-.144-.787.566.566,0,0,0-1.061.393,1.134,1.134,0,0,1,.074.394l0,.066A1.275,1.275,0,0,1,46.648,31.606Z" transform="translate(-20.236 -12.635)" fill="#f7791c"/>
    <path id="Path_670" data-name="Path 670" d="M16.433,45.123c-.332.156-.669.3-1,.429a.566.566,0,0,0,.2,1.094.559.559,0,0,0,.2-.038c.359-.139.721-.294,1.077-.46a.566.566,0,0,0-.481-1.025Z" transform="translate(-6.544 -19.138)" fill="#f7791c"/>
    <path id="Path_671" data-name="Path 671" d="M9.766,39.949a.565.565,0,0,0,.27-.069,1.384,1.384,0,0,1,.515-.163.918.918,0,0,1,.23,0A.565.565,0,1,0,10.93,38.6a2.089,2.089,0,0,0-.5,0,2.514,2.514,0,0,0-.931.295.566.566,0,0,0,.272,1.062Z" transform="translate(-3.995 -16.319)" fill="#f7791c"/>
    <path id="Path_672" data-name="Path 672" d="M9.668,47.987a2.8,2.8,0,0,0,.37.07,3.614,3.614,0,0,0,.435.027A4.2,4.2,0,0,0,11,48.049a.566.566,0,1,0-.141-1.122,2.772,2.772,0,0,1-.688.008,1.887,1.887,0,0,1-.223-.042.566.566,0,1,0-.285,1.095Z" transform="translate(-4.015 -19.921)" fill="#f7791c"/>
  </g>
</svg>
