<svg xmlns="http://www.w3.org/2000/svg" width="21.621" height="25.159" viewBox="0 0 21.621 25.159">
  <g id="message-on-phone" transform="translate(-36)">
    <path id="Path_691" data-name="Path 691" d="M50.545,13.759a.393.393,0,0,0-.393.393v7.076H36.786V3.931H41.11a.393.393,0,1,0,0-.786H36.786V2.752A1.968,1.968,0,0,1,38.752.786h9.435a.393.393,0,1,0,0-.786H38.752A2.755,2.755,0,0,0,36,2.752V22.407a2.755,2.755,0,0,0,2.752,2.752h9.435a2.755,2.755,0,0,0,2.752-2.752V14.152A.393.393,0,0,0,50.545,13.759ZM48.186,24.373H38.752a1.968,1.968,0,0,1-1.966-1.966v-.393H50.152v.393A1.968,1.968,0,0,1,48.186,24.373Z" fill="#f7791c"/>
    <path id="Path_692" data-name="Path 692" d="M165.966,464h-1.572a.393.393,0,1,0,0,.786h1.572a.393.393,0,1,0,0-.786Z" transform="translate(-121.71 -441.2)" fill="#f7791c"/>
    <path id="Path_693" data-name="Path 693" d="M132.115,32.115a.394.394,0,1,0,.278-.115A.4.4,0,0,0,132.115,32.115Z" transform="translate(-91.283 -30.428)" fill="#f7791c"/>
    <path id="Path_694" data-name="Path 694" d="M204.393,120.786h2.359a.393.393,0,0,0,0-.786h-2.359a.393.393,0,0,0,0,.786Z" transform="translate(-159.745 -114.103)" fill="#f7791c"/>
    <path id="Path_695" data-name="Path 695" d="M290.683,120h-6.29a.393.393,0,0,0,0,.786h6.29a.393.393,0,0,0,0-.786Z" transform="translate(-235.814 -114.103)" fill="#f7791c"/>
    <path id="Path_696" data-name="Path 696" d="M366.752,160h-2.359a.393.393,0,0,0,0,.786h2.359a.393.393,0,0,0,0-.786Z" transform="translate(-311.883 -152.138)" fill="#f7791c"/>
    <path id="Path_697" data-name="Path 697" d="M204.393,160.786h6.29a.393.393,0,0,0,0-.786h-6.29a.393.393,0,0,0,0,.786Z" transform="translate(-159.745 -152.138)" fill="#f7791c"/>
    <path id="Path_698" data-name="Path 698" d="M214.614,80H204.393a.393.393,0,0,0,0,.786h10.221a.393.393,0,1,0,0-.786Z" transform="translate(-159.745 -76.069)" fill="#f7791c"/>
    <path id="Path_699" data-name="Path 699" d="M214.614,200H204.393a.393.393,0,0,0,0,.786h10.221a.393.393,0,1,0,0-.786Z" transform="translate(-159.745 -190.172)" fill="#f7791c"/>
    <path id="Path_700" data-name="Path 700" d="M168.973,32H158.752A2.755,2.755,0,0,0,156,34.752v5.9a2.756,2.756,0,0,0,2.359,2.724V44.81a.786.786,0,0,0,1.342.556l1.966-1.966h7.306a2.755,2.755,0,0,0,2.752-2.752v-5.9A2.755,2.755,0,0,0,168.973,32Zm1.966,8.648a1.968,1.968,0,0,1-1.966,1.966H161.5a.393.393,0,0,0-.278.115l-2.081,2.08v-1.8a.393.393,0,0,0-.393-.393,1.968,1.968,0,0,1-1.966-1.966v-5.9a1.968,1.968,0,0,1,1.966-1.966h10.221a1.968,1.968,0,0,1,1.966,1.966Z" transform="translate(-114.103 -30.428)" fill="#f7791c"/>
  </g>
</svg>
