<svg xmlns="http://www.w3.org/2000/svg" width="17.782" height="26" viewBox="0 0 17.782 26">
  <g id="thermometer" transform="translate(0.001 0)">
    <path id="Path_642" data-name="Path 642" d="M10.032,14.778V8.072a.386.386,0,0,0-.772,0v6.9a.386.386,0,0,0,.162.314,5.477,5.477,0,1,1-6.348,0,.386.386,0,0,0,.162-.314V3.785a3.012,3.012,0,1,1,6.024,0V6.527a.386.386,0,1,0,.772,0V3.785a3.784,3.784,0,1,0-7.568,0V14.778a6.249,6.249,0,1,0,7.568,0Zm0,0" transform="translate(0 0)" fill="#f7791c"/>
    <path id="Path_643" data-name="Path 643" d="M44.744,61.664a3.392,3.392,0,0,1-1.957-.617.386.386,0,1,0-.443.632,4.188,4.188,0,0,0,6.59-3.432,4.2,4.2,0,0,0-1.762-3.415l-.7-.5V42.28a1.725,1.725,0,1,0-3.45,0V54.331l-.7.5a4.188,4.188,0,0,0-1.046,5.757.386.386,0,0,0,.64-.433,3.415,3.415,0,0,1,.854-4.7l.864-.616a.386.386,0,0,0,.162-.314V53.039h1.9V54.53a.386.386,0,0,0,.162.314l.864.616a3.418,3.418,0,0,1-1.979,6.2Zm.953-15.3h-1.9V44.188h1.9Zm-1.9.772h1.9v2.178h-1.9Zm.952-5.811a.954.954,0,0,1,.953.953v1.136h-1.9V42.28A.954.954,0,0,1,44.744,41.327Zm-.952,10.94V50.089h1.9v2.178Zm0,0" transform="translate(-38.496 -38.495)" fill="#f7791c"/>
    <path id="Path_644" data-name="Path 644" d="M269.882,76.164c-.269,0-.417.1-.437.306-.058.455-.146,1.143-1.218,1.143-.879,0-1.306-.446-1.306-1.365V73.3c0-.906.43-1.365,1.277-1.365a1.084,1.084,0,0,1,1.247,1.1c.011.2.166.308.437.308s.437-.078.437-.476c0-1.018-.88-1.73-2.141-1.73a1.953,1.953,0,0,0-2.131,2.16v2.947a2.13,2.13,0,0,0,.627,1.67,2.2,2.2,0,0,0,1.494.49c1.266,0,2.15-.723,2.15-1.759C270.319,76.245,270.152,76.164,269.882,76.164Zm0,0" transform="translate(-252.538 -67.528)" fill="#f7791c"/>
    <path id="Path_645" data-name="Path 645" d="M229.644,25.867a1.261,1.261,0,1,0-1.261,1.261A1.263,1.263,0,0,0,229.644,25.867Zm-1.261.489a.489.489,0,1,1,.489-.489A.49.49,0,0,1,228.383,26.356Zm0,0" transform="translate(-215.589 -23.356)" fill="#f7791c"/>
  </g>
</svg>
