<svg id="XMLID_1062_" xmlns="http://www.w3.org/2000/svg" width="26.01" height="25.999" viewBox="0 0 26.01 25.999">
  <g id="XMLID_727_" transform="translate(0 0)">
    <path id="XMLID_728_" d="M326.173,283.18a.509.509,0,1,0,.359-.148A.511.511,0,0,0,326.173,283.18Z" transform="translate(-309.47 -268.665)" fill="#f7791c"/>
    <path id="XMLID_1327_" d="M25.688,24.231l-.032-.032-1.341-5.636a5.31,5.31,0,0,0-5.183-4.094h-.038a.508.508,0,1,0,0,1.016h.038A4.3,4.3,0,0,1,23.327,18.8l.959,4.031L19.961,18.5a.508.508,0,0,0-.359-.149H17.342a.507.507,0,0,0-.185.035,8.318,8.318,0,0,0-8.3,0,.507.507,0,0,0-.184-.035H6.407a.508.508,0,0,0-.359.149L1.72,22.832,2.674,18.8a4.3,4.3,0,0,1,4.2-3.319h3.9a3.382,3.382,0,0,0,4.625-.149.508.508,0,0,0,.149-.359V12.371a4.813,4.813,0,0,0,2.171-3.156h.395a1.728,1.728,0,0,0,1.726-1.726V7.215a1.728,1.728,0,0,0-1.726-1.726H17.8V4.9a4.8,4.8,0,0,0-9.6,0v.586H7.891A1.728,1.728,0,0,0,6.165,7.215v.274A1.728,1.728,0,0,0,7.891,9.216h.395a4.813,4.813,0,0,0,2.171,3.156v2.1H6.87a5.328,5.328,0,0,0-5.185,4.1L.353,24.2l-.032.032A1.1,1.1,0,0,0,1.1,26.1H4.534a.508.508,0,0,0,.437-.249l1.7-2.88.156.1a1.378,1.378,0,0,0,.486.194,6.111,6.111,0,0,0-.458,2.327.508.508,0,1,0,1.016,0,5.106,5.106,0,0,1,1.163-3.249L11.194,24.5a2.1,2.1,0,0,0-.3,1.093.508.508,0,1,0,1.016,0,1.1,1.1,0,0,1,2.2,0,.508.508,0,1,0,1.016,0,2.1,2.1,0,0,0-.3-1.093l2.156-2.156a5.106,5.106,0,0,1,1.163,3.249.508.508,0,1,0,1.016,0,6.111,6.111,0,0,0-.458-2.327,1.378,1.378,0,0,0,.486-.194l.156-.1,1.7,2.88a.508.508,0,0,0,.437.249h3.438a1.1,1.1,0,0,0,.775-1.87ZM18.817,7.215v.274a.712.712,0,0,1-.711.711H17.8V6.5h.307A.712.712,0,0,1,18.817,7.215ZM9.213,4.9a3.785,3.785,0,0,1,7.57,0v.586H15.45a1.447,1.447,0,0,1-.744-.2,6.573,6.573,0,0,0,.8-.68.508.508,0,0,0-.718-.718,5.433,5.433,0,0,1-3.867,1.6h-1.7V4.9ZM7.18,7.489V7.215A.712.712,0,0,1,7.891,6.5H8.2V8.2H7.891A.712.712,0,0,1,7.18,7.489ZM9.213,8.3V6.5h1.7a6.459,6.459,0,0,0,2.853-.658A2.454,2.454,0,0,0,15.45,6.5h1.334V8.3a3.785,3.785,0,0,1-7.57,0ZM13,13.1a4.781,4.781,0,0,0,1.526-.249v1.9a2.372,2.372,0,0,1-3.051,0v-1.9A4.782,4.782,0,0,0,13,13.1Zm3.55,6.112-.412.7a1.386,1.386,0,0,0-.134.313,6.133,6.133,0,0,0-6,0,1.385,1.385,0,0,0-.134-.313l-.412-.7a7.3,7.3,0,0,1,7.088,0Zm-12.3,5.872H1.1a.08.08,0,0,1-.057-.137l2.886-2.886L5.25,23.387Zm2.537-3.253A.508.508,0,0,0,6.07,22l-.286.483-1.14-1.14,1.974-1.974H8.377L9,20.43a.376.376,0,0,1-.038.432L7.87,22.145a.377.377,0,0,1-.489.073Zm5.13,1.949L9.756,21.627a5.119,5.119,0,0,1,6.5,0L14.1,23.782a2.112,2.112,0,0,0-2.186,0Zm7.316-1.949-.6.385a.376.376,0,0,1-.489-.073l-1.088-1.283a.376.376,0,0,1-.038-.432l.619-1.059h1.759l1.974,1.974-1.14,1.14L19.94,22a.508.508,0,0,0-.712-.169Zm5.759,3.2a.073.073,0,0,1-.074.049H21.765l-1.005-1.7,1.324-1.324,2.886,2.886A.072.072,0,0,1,24.987,25.036Z" transform="translate(0 -0.102)" fill="#f7791c"/>
  </g>
</svg>
