<?xml version="1.0" standalone="no"?>
<!DOCTYPE svg PUBLIC "-//W3C//DTD SVG 20010904//EN"
 "http://www.w3.org/TR/2001/REC-SVG-20010904/DTD/svg10.dtd">
<svg version="1.0" xmlns="http://www.w3.org/2000/svg"
 width="251.000000pt" height="251.000000pt" viewBox="0 0 251.000000 251.000000"
 preserveAspectRatio="xMidYMid meet">
<metadata>
Created by potrace 1.11, written by Peter Selinger 2001-2013
</metadata>
<g transform="translate(0.000000,251.000000) scale(0.100000,-0.100000)"
fill="#000000" stroke="none">
<path d="M955 1648 c-2 -7 -22 -119 -45 -248 -22 -129 -43 -247 -46 -262 l-6
-28 61 0 c68 0 62 -9 81 110 6 36 15 89 21 118 l11 53 52 -83 c29 -46 60 -84
70 -86 12 -3 44 21 93 70 69 67 74 70 69 43 -12 -59 -36 -200 -36 -212 0 -9
19 -13 60 -13 33 0 60 4 60 10 0 5 20 124 45 264 25 141 45 260 45 266 0 5
-10 10 -22 10 -16 0 -63 -43 -158 -142 l-136 -142 -85 142 c-69 115 -88 141
-107 142 -12 0 -25 -6 -27 -12z"/>
<path d="M1653 1639 c-95 -47 -119 -172 -47 -240 14 -13 58 -42 97 -64 59 -33
73 -46 75 -68 5 -39 -14 -57 -60 -57 -47 0 -89 20 -117 56 l-21 26 -45 -26
c-39 -23 -44 -30 -35 -47 18 -32 75 -84 112 -102 41 -19 148 -23 180 -6 16 9
25 6 47 -14 14 -13 35 -29 46 -35 15 -9 -20 -11 -146 -12 l-167 0 -4 -30 -5
-30 177 0 176 0 9 33 c8 25 16 33 37 35 15 2 41 16 56 32 20 20 33 26 43 19
19 -12 66 -11 90 1 13 7 19 7 19 0 0 -5 14 -10 30 -10 17 0 30 1 30 3 0 2 9
52 20 112 11 60 20 110 20 112 0 2 -16 3 -35 3 -19 0 -35 -4 -35 -9 0 -5 -14
-3 -31 6 -40 20 -91 10 -127 -26 -26 -26 -30 -28 -53 -15 -13 7 -38 13 -56 14
-23 0 -33 6 -38 20 -10 32 -63 79 -126 110 -80 41 -105 85 -65 112 25 18 85 8
116 -19 l32 -26 34 18 c53 28 56 37 27 73 -55 72 -173 94 -260 51z m515 -381
c18 -18 14 -63 -7 -82 -26 -24 -62 -17 -80 15 -13 24 -13 29 2 53 19 28 63 36
85 14z m-221 -174 c-3 -3 -12 -4 -19 -1 -8 3 -5 6 6 6 11 1 17 -2 13 -5z"/>
<path d="M218 1512 c-140 -88 -218 -143 -218 -154 0 -19 20 -24 130 -33 41 -4
82 -8 90 -11 8 -2 40 -49 70 -104 52 -94 70 -114 85 -90 7 11 94 484 95 513 0
10 -7 17 -17 17 -10 0 -116 -62 -235 -138z"/>
<path d="M515 1628 c-11 -52 -85 -484 -85 -500 0 -15 9 -18 58 -18 l58 0 13
78 c22 135 9 122 122 122 l98 0 6 38 c4 20 9 45 12 55 4 15 -5 17 -96 17 -57
0 -101 4 -101 10 0 5 5 32 11 60 l11 50 118 0 c65 0 121 3 123 8 3 4 8 28 12
55 l7 47 -181 0 c-179 0 -181 0 -186 -22z"/>
<path d="M2306 1308 c-9 -37 -8 -38 40 -38 l46 0 -66 -74 c-36 -41 -66 -79
-66 -85 0 -7 35 -11 104 -11 l104 0 4 30 c5 30 4 30 -44 30 -26 0 -48 3 -48 6
0 3 27 36 60 73 33 37 60 73 60 79 0 8 -29 12 -94 12 -89 0 -94 -1 -100 -22z"/>
<path d="M437 1053 c-4 -3 -7 -21 -7 -40 l0 -33 174 0 c188 0 186 -1 186 56
l0 24 -173 0 c-96 0 -177 -3 -180 -7z"/>
<path d="M1007 1053 c-3 -5 -7 -21 -8 -38 l-4 -30 170 -3 c151 -2 171 -1 182
15 7 9 13 27 13 40 l0 23 -174 0 c-96 0 -177 -3 -179 -7z"/>
<path d="M2140 1036 c0 -8 -3 -21 -6 -30 -5 -14 13 -16 160 -16 91 0 166 3
166 8 0 4 3 17 6 30 l6 22 -166 0 c-137 0 -166 -3 -166 -14z"/>
<path d="M450 931 c-5 -11 -10 -29 -10 -40 0 -12 -5 -21 -11 -21 -5 0 -7 -5
-3 -11 10 -17 33 12 36 44 1 15 6 27 10 27 4 0 8 5 8 10 0 17 -19 11 -30 -9z"/>
<path d="M518 937 c-5 -10 -8 -31 -8 -45 1 -24 2 -25 11 -9 6 10 9 30 7 45 -2
23 -4 24 -10 9z"/>
<path d="M769 933 c-6 -34 -2 -57 10 -61 9 -3 11 1 6 17 -4 12 -2 21 4 21 6 0
8 7 5 15 -6 16 -23 21 -25 8z"/>
<path d="M1833 929 c-15 -15 -4 -59 15 -59 12 0 13 3 4 12 -7 7 -8 16 -2 23
12 15 -3 38 -17 24z"/>
<path d="M2243 929 c-14 -14 -4 -59 13 -59 9 0 12 10 9 31 -5 37 -8 42 -22 28z"/>
<path d="M573 904 c-3 -8 -1 -20 5 -26 16 -16 42 -2 42 22 0 24 -38 28 -47 4z"/>
<path d="M672 898 c4 -27 33 -36 42 -13 8 22 -1 35 -25 35 -15 0 -20 -6 -17
-22z"/>
<path d="M910 895 c0 -31 8 -32 21 -2 l10 22 -5 -22 c-2 -13 0 -23 5 -23 5 0
9 6 9 14 0 8 4 17 9 20 5 4 7 -3 4 -14 -3 -11 0 -20 6 -20 6 0 11 11 11 25 0
22 -4 25 -35 25 -31 0 -35 -3 -35 -25z"/>
<path d="M1034 905 c-8 -20 4 -35 27 -35 14 0 19 7 19 25 0 18 -5 25 -20 25
-11 0 -23 -7 -26 -15z"/>
<path d="M1130 895 c0 -31 8 -32 21 -2 l10 22 -5 -22 c-5 -26 9 -31 18 -7 8
21 -1 34 -25 34 -14 0 -19 -7 -19 -25z"/>
<path d="M1224 905 c-3 -8 -3 -19 1 -25 8 -12 45 -13 45 -1 0 5 3 16 6 25 5
12 0 16 -20 16 -15 0 -29 -7 -32 -15z m31 -5 c3 -5 1 -10 -4 -10 -6 0 -11 5
-11 10 0 6 2 10 4 10 3 0 8 -4 11 -10z"/>
<path d="M1327 913 c-12 -11 -7 -51 6 -56 20 -7 33 4 41 36 6 24 3 27 -17 27
-13 0 -27 -3 -30 -7z m33 -13 c0 -5 -4 -10 -10 -10 -5 0 -10 5 -10 10 0 6 5
10 10 10 6 0 10 -4 10 -10z"/>
<path d="M1423 904 c-3 -8 -1 -20 5 -26 16 -16 42 -2 42 22 0 24 -38 28 -47 4z"/>
<path d="M1518 895 c-3 -14 -1 -25 3 -25 5 0 9 6 9 14 0 8 4 17 9 20 5 4 7 -3
4 -14 -3 -11 -1 -20 5 -20 6 0 13 10 15 23 l4 22 2 -22 c2 -31 21 -29 21 2 0
22 -4 25 -34 25 -28 0 -34 -4 -38 -25z"/>
<path d="M1638 908 c-8 -21 2 -38 22 -38 19 0 34 25 24 41 -8 13 -41 11 -46
-3z"/>
<path d="M1730 895 c0 -31 20 -33 21 -2 1 21 1 21 8 -3 6 -22 8 -23 14 -7 9
24 1 37 -24 37 -14 0 -19 -7 -19 -25z"/>
<path d="M1979 918 c-10 -35 -7 -49 8 -46 23 4 31 48 9 48 -9 0 -16 -1 -17 -2z"/>
<path d="M2057 893 c-3 -16 0 -31 6 -35 18 -11 35 2 39 33 5 31 -7 41 -15 12
-4 -17 -5 -17 -6 0 -2 27 -18 20 -24 -10z"/>
<path d="M2153 895 c0 -33 31 -30 35 3 3 16 -2 22 -16 22 -14 0 -19 -7 -19
-25z"/>
<path d="M2313 904 c-3 -8 -1 -20 5 -26 16 -16 42 -2 42 22 0 24 -38 28 -47 4z"/>
<path d="M2408 895 c-3 -14 -1 -25 3 -25 5 0 9 6 9 14 0 8 4 17 9 20 5 4 7 -3
4 -14 -3 -11 -1 -20 5 -20 6 0 13 10 15 23 l4 22 2 -22 c2 -31 21 -29 21 2 0
22 -4 25 -34 25 -28 0 -34 -4 -38 -25z"/>
</g>
</svg>
