<svg version="1.0" xmlns="http://www.w3.org/2000/svg" width="1301.333" height="1301.333" viewBox="0 0 976 976"><path d="M870.2 1.6c-2.9.7-6.3 1.9-7.5 2.6-10.5 5.6-784.2 497-787.5 500.2-6.8 6.5-9.6 13.3-9.6 23 0 6.7.5 9.1 2.8 14.1 3.2 7.2 10.6 14.5 16.9 16.9 3.1 1.2 64.6 8.5 199.8 24 168.3 19.2 196.1 22.6 200.5 24.5 10.9 4.7 7.1-1.7 108 182.6 51.5 94.1 95.1 172.9 97 175.2 7.7 9.4 24.1 13 36.9 8.2 7.4-2.8 15.5-10.2 18.3-16.7 1.4-3.2 29.6-158.6 83.7-460.7 73.3-409.4 81.6-456.8 81.2-464-.8-16.1-10.9-27.4-27.2-30.4-7-1.3-6.7-1.3-13.3.5z"/></svg>