<?xml version="1.0" standalone="no"?>
<!DOCTYPE svg PUBLIC "-//W3C//DTD SVG 20010904//EN"
 "http://www.w3.org/TR/2001/REC-SVG-20010904/DTD/svg10.dtd">
<svg version="1.0" xmlns="http://www.w3.org/2000/svg"
 width="272.000000pt" height="272.000000pt" viewBox="0 0 272.000000 272.000000"
 preserveAspectRatio="xMidYMid meet">
<metadata>
Created by potrace 1.11, written by Peter Selinger 2001-2013
</metadata>
<g transform="translate(0.000000,272.000000) scale(0.100000,-0.100000)"
fill="#000000" stroke="none">
<path d="M1836 2713 c-28 -7 -128 -73 -186 -123 -49 -42 -147 -154 -196 -225
-36 -52 -73 -132 -88 -190 -30 -112 7 -166 104 -151 91 13 228 121 345 271
141 182 188 316 139 399 -11 19 -76 29 -118 19z"/>
<path d="M2031 1909 c-232 -43 -340 -306 -205 -500 117 -169 369 -186 501 -34
54 61 76 119 80 203 3 95 -23 168 -86 235 -66 70 -93 83 -231 102 -8 1 -35 -2
-59 -6z"/>
<path d="M529 1897 c-131 -49 -210 -155 -215 -288 -3 -80 9 -127 52 -195 78
-125 225 -175 375 -127 82 26 170 118 197 204 49 158 -18 316 -164 389 -60 29
-188 38 -245 17z"/>
<path d="M1270 1903 c-184 -60 -282 -252 -218 -423 31 -81 124 -170 202 -194
75 -24 183 -18 242 12 63 32 131 107 155 171 67 175 -18 365 -192 426 -39 14
-157 19 -189 8z"/>
<path d="M903 1275 c-138 -41 -225 -153 -229 -295 -3 -95 20 -160 82 -229 66
-73 139 -106 234 -105 120 1 208 49 272 146 57 87 69 187 33 287 -29 82 -117
168 -199 193 -49 15 -148 16 -193 3z"/>
<path d="M1633 1275 c-86 -26 -167 -96 -205 -180 -31 -69 -31 -190 1 -256 34
-71 87 -127 155 -161 53 -27 71 -31 141 -32 70 0 87 4 141 32 110 56 177 159
178 272 0 106 -21 165 -84 234 -79 86 -216 124 -327 91z"/>
<path d="M1256 636 c-237 -88 -302 -382 -120 -544 66 -59 137 -86 220 -84 207
5 350 179 312 380 -18 100 -84 186 -176 232 -58 30 -178 37 -236 16z"/>
</g>
</svg>
