<svg version="1.0" xmlns="http://www.w3.org/2000/svg" width="334.667" height="334.667" viewBox="0 0 251 251"><path d="M95.5 86.2c-.2.7-2.2 11.9-4.5 24.8-2.2 12.9-4.3 24.7-4.6 26.2l-.6 2.8h6.1c6.8 0 6.2.9 8.1-11 .6-3.6 1.5-8.9 2.1-11.8l1.1-5.3 5.2 8.3c2.9 4.6 6 8.4 7 8.6 1.2.3 4.4-2.1 9.3-7 6.9-6.7 7.4-7 6.9-4.3-1.2 5.9-3.6 20-3.6 21.2 0 .9 1.9 1.3 6 1.3 3.3 0 6-.4 6-1 0-.5 2-12.4 4.5-26.4 2.5-14.1 4.5-26 4.5-26.6 0-.5-1-1-2.2-1-1.6 0-6.3 4.3-15.8 14.2l-13.6 14.2-8.5-14.2C102 87.7 100.1 85.1 98.2 85c-1.2 0-2.5.6-2.7 1.2zm69.8.9c-9.5 4.7-11.9 17.2-4.7 24 1.4 1.3 5.8 4.2 9.7 6.4 5.9 3.3 7.3 4.6 7.5 6.8.5 3.9-1.4 5.7-6 5.7-4.7 0-8.9-2-11.7-5.6l-2.1-2.6-4.5 2.6c-3.9 2.3-4.4 3-3.5 4.7 1.8 3.2 7.5 8.4 11.2 10.2 4.1 1.9 14.8 2.3 18 .6 1.6-.9 2.5-.6 4.7 1.4 1.4 1.3 3.5 2.9 4.6 3.5 1.5.9-2 1.1-14.6 1.2h-16.7l-.4 3-.5 3h35.3l.9-3.3c.8-2.5 1.6-3.3 3.7-3.5 1.5-.2 4.1-1.6 5.6-3.2 2-2 3.3-2.6 4.3-1.9 1.9 1.2 6.6 1.1 9-.1 1.3-.7 1.9-.7 1.9 0 0 .5 1.4 1 3 1 1.7 0 3-.1 3-.3 0-.2.9-5.2 2-11.2 1.1-6 2-11 2-11.2 0-.2-1.6-.3-3.5-.3s-3.5.4-3.5.9-1.4.3-3.1-.6c-4-2-9.1-1-12.7 2.6-2.6 2.6-3 2.8-5.3 1.5-1.3-.7-3.8-1.3-5.6-1.4-2.3 0-3.3-.6-3.8-2-1-3.2-6.3-7.9-12.6-11-8-4.1-10.5-8.5-6.5-11.2 2.5-1.8 8.5-.8 11.6 1.9l3.2 2.6 3.4-1.8c5.3-2.8 5.6-3.7 2.7-7.3-5.5-7.2-17.3-9.4-26-5.1zm51.5 38.1c1.8 1.8 1.4 6.3-.7 8.2-2.6 2.4-6.2 1.7-8-1.5-1.3-2.4-1.3-2.9.2-5.3 1.9-2.8 6.3-3.6 8.5-1.4zm-22.1 17.4c-.3.3-1.2.4-1.9.1-.8-.3-.5-.6.6-.6 1.1-.1 1.7.2 1.3.5zM21.8 99.8C7.8 108.6 0 114.1 0 115.2c0 1.9 2 2.4 13 3.3 4.1.4 8.2.8 9 1.1.8.2 4 4.9 7 10.4 5.2 9.4 7 11.4 8.5 9 .7-1.1 9.4-48.4 9.5-51.3 0-1-.7-1.7-1.7-1.7s-11.6 6.2-23.5 13.8zm29.7-11.6c-1.1 5.2-8.5 48.4-8.5 50 0 1.5.9 1.8 5.8 1.8h5.8l1.3-7.8c2.2-13.5.9-12.2 12.2-12.2h9.8l.6-3.8c.4-2 .9-4.5 1.2-5.5.4-1.5-.5-1.7-9.6-1.7-5.7 0-10.1-.4-10.1-1 0-.5.5-3.2 1.1-6l1.1-5H74c6.5 0 12.1-.3 12.3-.8.3-.4.8-2.8 1.2-5.5l.7-4.7H70.1c-17.9 0-18.1 0-18.6 2.2zm179.1 32c-.9 3.7-.8 3.8 4 3.8h4.6l-6.6 7.4c-3.6 4.1-6.6 7.9-6.6 8.5 0 .7 3.5 1.1 10.4 1.1h10.4l.4-3c.5-3 .4-3-4.4-3-2.6 0-4.8-.3-4.8-.6s2.7-3.6 6-7.3c3.3-3.7 6-7.3 6-7.9 0-.8-2.9-1.2-9.4-1.2-8.9 0-9.4.1-10 2.2zM43.7 145.7c-.4.3-.7 2.1-.7 4v3.3h17.4c18.8 0 18.6.1 18.6-5.6V145H61.7c-9.6 0-17.7.3-18 .7zm57 0c-.3.5-.7 2.1-.8 3.8l-.4 3 17 .3c15.1.2 17.1.1 18.2-1.5.7-.9 1.3-2.7 1.3-4V145h-17.4c-9.6 0-17.7.3-17.9.7zm113.3 1.7c0 .8-.3 2.1-.6 3-.5 1.4 1.3 1.6 16 1.6 9.1 0 16.6-.3 16.6-.8 0-.4.3-1.7.6-3l.6-2.2h-16.6c-13.7 0-16.6.3-16.6 1.4zM45 157.9c-.5 1.1-1 2.9-1 4 0 1.2-.5 2.1-1.1 2.1-.5 0-.7.5-.3 1.1 1 1.7 3.3-1.2 3.6-4.4.1-1.5.6-2.7 1-2.7s.8-.5.8-1c0-1.7-1.9-1.1-3 .9zm6.8-.6c-.5 1-.8 3.1-.8 4.5.1 2.4.2 2.5 1.1.9.6-1 .9-3 .7-4.5-.2-2.3-.4-2.4-1-.9zm25.1.4c-.6 3.4-.2 5.7 1 6.1.9.3 1.1-.1.6-1.7-.4-1.2-.2-2.1.4-2.1.6 0 .8-.7.5-1.5-.6-1.6-2.3-2.1-2.5-.8zm106.4.4c-1.5 1.5-.4 5.9 1.5 5.9 1.2 0 1.3-.3.4-1.2-.7-.7-.8-1.6-.2-2.3 1.2-1.5-.3-3.8-1.7-2.4zm41 0c-1.4 1.4-.4 5.9 1.3 5.9.9 0 1.2-1 .9-3.1-.5-3.7-.8-4.2-2.2-2.8zm-167 2.5c-.3.8-.1 2 .5 2.6 1.6 1.6 4.2.2 4.2-2.2 0-2.4-3.8-2.8-4.7-.4zm9.9.6c.4 2.7 3.3 3.6 4.2 1.3.8-2.2-.1-3.5-2.5-3.5-1.5 0-2 .6-1.7 2.2zm23.8.3c0 3.1.8 3.2 2.1.2l1-2.2-.5 2.2c-.2 1.3 0 2.3.5 2.3s.9-.6.9-1.4c0-.8.4-1.7.9-2 .5-.4.7.3.4 1.4-.3 1.1 0 2 .6 2s1.1-1.1 1.1-2.5c0-2.2-.4-2.5-3.5-2.5s-3.5.3-3.5 2.5zm12.4-1c-.8 2 .4 3.5 2.7 3.5 1.4 0 1.9-.7 1.9-2.5s-.5-2.5-2-2.5c-1.1 0-2.3.7-2.6 1.5zm9.6 1c0 3.1.8 3.2 2.1.2l1-2.2-.5 2.2c-.5 2.6.9 3.1 1.8.7.8-2.1-.1-3.4-2.5-3.4-1.4 0-1.9.7-1.9 2.5zm9.4-1c-.3.8-.3 1.9.1 2.5.8 1.2 4.5 1.3 4.5.1 0-.5.3-1.6.6-2.5.5-1.2 0-1.6-2-1.6-1.5 0-2.9.7-3.2 1.5zm3.1.5c.3.5.1 1-.4 1-.6 0-1.1-.5-1.1-1 0-.6.2-1 .4-1 .3 0 .8.4 1.1 1zm7.2-1.3c-1.2 1.1-.7 5.1.6 5.6 2 .7 3.3-.4 4.1-3.6.6-2.4.3-2.7-1.7-2.7-1.3 0-2.7.3-3 .7zm3.3 1.3c0 .5-.4 1-1 1-.5 0-1-.5-1-1 0-.6.5-1 1-1 .6 0 1 .4 1 1zm6.3-.4c-.3.8-.1 2 .5 2.6 1.6 1.6 4.2.2 4.2-2.2 0-2.4-3.8-2.8-4.7-.4zm9.5.9c-.3 1.4-.1 2.5.3 2.5.5 0 .9-.6.9-1.4 0-.8.4-1.7.9-2 .5-.4.7.3.4 1.4-.3 1.1-.1 2 .5 2s1.3-1 1.5-2.3l.4-2.2.2 2.2c.2 3.1 2.1 2.9 2.1-.2 0-2.2-.4-2.5-3.4-2.5-2.8 0-3.4.4-3.8 2.5zm12-1.3c-.8 2.1.2 3.8 2.2 3.8 1.9 0 3.4-2.5 2.4-4.1-.8-1.3-4.1-1.1-4.6.3zm9.2 1.3c0 3.1 2 3.3 2.1.2.1-2.1.1-2.1.8.3.6 2.2.8 2.3 1.4.7.9-2.4.1-3.7-2.4-3.7-1.4 0-1.9.7-1.9 2.5zm24.9-2.3c-1 3.5-.7 4.9.8 4.6 2.3-.4 3.1-4.8.9-4.8-.9 0-1.6.1-1.7.2zm7.8 2.5c-.3 1.6 0 3.1.6 3.5 1.8 1.1 3.5-.2 3.9-3.3.5-3.1-.7-4.1-1.5-1.2-.4 1.7-.5 1.7-.6 0-.2-2.7-1.8-2-2.4 1zm9.6-.2c0 3.3 3.1 3 3.5-.3.3-1.6-.2-2.2-1.6-2.2-1.4 0-1.9.7-1.9 2.5zm16-.9c-.3.8-.1 2 .5 2.6 1.6 1.6 4.2.2 4.2-2.2 0-2.4-3.8-2.8-4.7-.4zm9.5.9c-.3 1.4-.1 2.5.3 2.5.5 0 .9-.6.9-1.4 0-.8.4-1.7.9-2 .5-.4.7.3.4 1.4-.3 1.1-.1 2 .5 2s1.3-1 1.5-2.3l.4-2.2.2 2.2c.2 3.1 2.1 2.9 2.1-.2 0-2.2-.4-2.5-3.4-2.5-2.8 0-3.4.4-3.8 2.5z"/></svg>